HIERARCHY
ROOT Hips
{
	OFFSET 0.000000 88.474243 0.000000
	CHANNELS 6 Xposition Yposition Zposition Zrotation Yrotation Xrotation 
	JOINT Hips_Spine
	{
		OFFSET 0.000000 0.000000 0.000000
		CHANNELS 3 Zrotation Yrotation Xrotation
		JOINT Spine
		{
			OFFSET 0.005100 8.711998 -0.691000
			CHANNELS 3 Zrotation Yrotation Xrotation
			JOINT Spine1
			{
				OFFSET -0.009200 8.660301 -1.275000
				CHANNELS 3 Zrotation Yrotation Xrotation
				JOINT Spine2
				{
					OFFSET 0.006300 9.852501 -1.857000
					CHANNELS 3 Zrotation Yrotation Xrotation
					JOINT Spine2_Neck
					{
						OFFSET 0.000000 0.000000 0.000000
						CHANNELS 3 Zrotation Yrotation Xrotation
						JOINT Neck
						{
							OFFSET 0.016300 11.420799 -0.263300
							CHANNELS 3 Zrotation Yrotation Xrotation
							End Site #name: Head
							{
								OFFSET -0.019200 9.262405 2.362500
							}
						}
					}
					JOINT Spine2_LeftShoulder
					{
						OFFSET 0.000000 0.000000 0.000000
						CHANNELS 3 Zrotation Yrotation Xrotation
						JOINT LeftShoulder
						{
							OFFSET 5.616900 6.732201 -0.345700
							CHANNELS 3 Zrotation Yrotation Xrotation
							JOINT LeftArm
							{
								OFFSET 10.664888 -0.183372 -2.440700
								CHANNELS 3 Zrotation Yrotation Xrotation
								JOINT LeftForeArm
								{
									OFFSET 27.459126 0.000000 0.000000
									CHANNELS 3 Zrotation Yrotation Xrotation
									End Site #name: LeftHand
									{
										OFFSET 21.306858 0.000000 0.000000
									}
								}
							}
						}
					}
					JOINT Spine2_RightShoulder
					{
						OFFSET 0.000000 0.000000 0.000000
						CHANNELS 3 Zrotation Yrotation Xrotation
						JOINT RightShoulder
						{
							OFFSET -5.580300 6.737503 -0.344400
							CHANNELS 3 Zrotation Yrotation Xrotation
							JOINT RightArm
							{
								OFFSET -10.679335 -0.188484 -2.383900
								CHANNELS 3 Zrotation Yrotation Xrotation
								JOINT RightForeArm
								{
									OFFSET -27.503529 0.000000 0.000000
									CHANNELS 3 Zrotation Yrotation Xrotation
									End Site #name: RightHand
									{
										OFFSET -21.306808 0.000000 0.000000
									}
								}
							}
						}
					}
				}
			}
		}
	}
	JOINT Hips_LeftUpLeg
	{
		OFFSET 0.000000 0.000000 0.000000
		CHANNELS 3 Zrotation Yrotation Xrotation
		JOINT LeftUpLeg
		{
			OFFSET 6.857700 -6.739601 0.312100
			CHANNELS 3 Zrotation Yrotation Xrotation
			JOINT LeftLeg
			{
				OFFSET -0.367590 -34.731552 -4.572400
				CHANNELS 3 Zrotation Yrotation Xrotation
				End Site #name: LeftFoot
				{
					OFFSET 0.367590 -34.656704 -6.067400
				}
			}
		}
	}
	JOINT Hips_RightUpLeg
	{
		OFFSET 0.000000 0.000000 0.000000
		CHANNELS 3 Zrotation Yrotation Xrotation
		JOINT RightUpLeg
		{
			OFFSET -6.876100 -6.733299 0.301000
			CHANNELS 3 Zrotation Yrotation Xrotation
			JOINT RightLeg
			{
				OFFSET 0.347353 -34.795158 -4.515900
				CHANNELS 3 Zrotation Yrotation Xrotation
				End Site #name: RightFoot
				{
					OFFSET -0.347353 -34.589367 -6.070300
				}
			}
		}
	}
}
MOTION
Frames: 12
Frame Time: 0.041667
0.782248 0.684468 0.348151 0.190404 28.919946 -7.849411 -0.000000 0.000000 0.000000 0.592583 -0.266886 -5.813540 2.260366 -1.751447 -6.053648 0.000000 0.000000 0.000000 2.787454 -1.245329 -6.113241 4.488945 -3.585780 -6.678480 1.358527 -1.476863 -6.682249 -17.873408 1.055539 10.426147 -55.373765 13.541160 0.147632 -0.604146 -22.625903 7.185717 1.726302 -1.466246 -3.399325 4.730954 6.527830 1.417958 63.477719 -0.791973 -7.747100 0.396310 51.113140 -0.684271 -0.000000 -0.000000 -0.000000 -10.185550 24.375395 -2.057547 -2.118904 -0.742513 19.471852 0.000000 0.000000 0.000000 -6.279299 7.035497 -17.184647 5.942439 0.515433 14.032977 
0.554034 0.690160 0.375958 -0.664472 31.622478 -8.517945 -0.000000 0.000000 0.000000 1.390930 -0.267019 -6.368785 2.453929 -1.752853 -5.966701 0.000000 0.000000 0.000000 2.955533 -1.186627 -6.052042 4.318473 -3.629885 -6.525252 1.572890 -1.419333 -6.555130 -17.237964 0.882509 10.497448 -56.077665 14.128557 -0.835780 -0.624808 -23.145741 7.054457 1.924402 -1.419361 -3.400075 4.999701 6.650597 1.486361 63.498257 -1.005671 -7.788453 0.400108 51.202169 -0.688635 -0.000000 -0.000000 -0.000000 -9.260220 24.735956 -1.640105 -2.387388 -1.142358 19.418513 0.000000 0.000000 0.000000 -5.366883 7.189838 -17.310460 5.872085 -0.226470 14.017659 
0.359619 0.688710 0.408322 -1.513049 34.072209 -9.204866 -0.000000 -0.000000 0.000000 2.114091 -0.198595 -6.674633 2.631780 -1.739322 -5.856573 0.000000 0.000000 0.000000 3.093227 -1.123814 -5.966761 4.162639 -3.596189 -6.323983 1.768930 -1.361823 -6.411368 -16.554236 0.666081 10.537851 -56.772243 14.611590 -1.762364 -0.651254 -23.665865 6.925045 2.099700 -1.363321 -3.376949 5.329507 6.774001 1.554236 63.489367 -1.187427 -7.802597 0.409072 51.335407 -0.689128 -0.000000 -0.000000 -0.000000 -8.424098 25.008760 -1.110138 -2.609164 -1.517822 19.073010 0.000000 -0.000000 0.000000 -4.472322 7.290960 -17.383414 5.782011 -0.908528 14.059293 
0.203445 0.685800 0.442077 -2.309017 36.269502 -9.874182 -0.000000 -0.000000 0.000000 2.678190 -0.125851 -6.912165 2.780643 -1.736651 -5.736440 0.000000 0.000000 0.000000 3.199737 -1.066424 -5.877981 4.033672 -3.614271 -6.004749 1.927436 -1.313536 -6.266755 -15.844558 0.414106 10.551606 -57.469821 14.984305 -2.604604 -0.681112 -24.190559 6.784715 2.238547 -1.318494 -3.340550 5.654635 6.904224 1.616923 63.451466 -1.323545 -7.789925 0.417798 51.491371 -0.684502 -0.000000 -0.000000 -0.000000 -7.606834 25.108594 -0.557167 -2.825658 -1.806571 18.689726 0.000000 -0.000000 0.000000 -3.643334 7.406370 -17.430848 5.697584 -1.596066 14.154188 
0.087371 0.684329 0.474032 -3.024515 38.101230 -10.500578 -0.000000 -0.000000 0.000000 3.134722 -0.070397 -7.008949 2.906813 -1.731034 -5.620130 0.000000 0.000000 0.000000 3.284678 -1.015586 -5.801609 3.918650 -3.720792 -5.570197 2.059624 -1.274684 -6.126699 -15.120193 0.145832 10.534905 -58.146304 15.313417 -3.330046 -0.713183 -24.697769 6.642181 2.349726 -1.284591 -3.296478 5.950951 7.041027 1.671670 63.385472 -1.436183 -7.759535 0.432397 51.678480 -0.678622 -0.000000 -0.000000 -0.000000 -6.815763 25.187435 -0.020291 -3.056044 -1.961976 18.384257 0.000000 -0.000000 0.000000 -2.914782 7.621528 -17.449248 5.614657 -2.316693 14.288158 
0.016648 0.685280 0.499456 -3.632167 39.424504 -11.045048 -0.000000 -0.000000 0.000000 3.410679 -0.063652 -6.916063 3.009268 -1.728033 -5.510968 0.000000 0.000000 0.000000 3.354559 -0.972030 -5.720849 3.787717 -3.920584 -5.024784 2.170266 -1.243977 -5.982737 -14.436891 -0.115835 10.492475 -58.793931 15.577993 -3.993025 -0.747079 -25.208992 6.495287 2.449861 -1.259217 -3.245776 6.224494 7.183831 1.714918 63.318293 -1.556279 -7.732989 0.449044 52.042615 -0.672473 -0.000000 -0.000000 -0.000000 -6.081763 25.221242 0.505334 -3.303489 -2.051874 18.145615 0.000000 -0.000000 0.000000 -2.290857 7.920556 -17.470356 5.522807 -3.046299 14.493382 
-0.001991 0.688373 0.513323 -4.063673 40.014800 -11.438648 -0.000000 -0.000000 0.000000 3.644787 -0.068517 -6.790938 3.095784 -1.729537 -5.397654 0.000000 0.000000 0.000000 3.405445 -0.931881 -5.612478 3.628398 -4.115113 -4.401439 2.262942 -1.218918 -5.830422 -13.830737 -0.345607 10.429192 -59.382310 15.820018 -4.588438 -0.784174 -25.669172 6.350573 2.533293 -1.240294 -3.188650 6.453630 7.321767 1.749984 63.240417 -1.648014 -7.682795 0.470286 52.538646 -0.660037 -0.000000 -0.000000 -0.000000 -5.438310 25.143214 0.946724 -3.652707 -2.225966 18.118332 0.000000 -0.000000 0.000000 -1.749653 8.305764 -17.523803 5.520905 -3.638625 14.797421 
0.038305 0.693965 0.515152 -4.294365 39.852346 -11.671463 -0.000000 -0.000000 0.000000 3.830230 -0.097714 -6.671456 3.161260 -1.737790 -5.263473 0.000000 0.000000 0.000000 3.443980 -0.900175 -5.489043 3.453467 -4.258799 -3.745308 2.340934 -1.200552 -5.673796 -13.344729 -0.542618 10.352282 -59.916736 16.010733 -5.152215 -0.832107 -26.075620 6.232759 2.600567 -1.223855 -3.120685 6.646882 7.447783 1.775806 63.152460 -1.733055 -7.607536 0.493792 53.055320 -0.646153 -0.000000 -0.000000 -0.000000 -4.962687 24.811735 1.290703 -4.044569 -2.500470 18.301045 0.000000 -0.000000 0.000000 -1.288186 8.759952 -17.623539 5.537093 -4.094292 15.205958 
0.143258 0.702240 0.504833 -4.345966 39.293213 -11.776816 -0.000000 -0.000000 0.000000 4.007632 -0.146793 -6.569777 3.210892 -1.747726 -5.117016 0.000000 0.000000 0.000000 3.469818 -0.873102 -5.346138 3.244876 -4.307200 -3.040565 2.404807 -1.184564 -5.514620 -13.011627 -0.690056 10.261675 -60.351946 16.044331 -5.563308 -0.898413 -26.406622 6.156430 2.653517 -1.210280 -3.046791 6.803230 7.561683 1.795515 63.067254 -1.822879 -7.517603 0.516738 53.509451 -0.631880 -0.000000 -0.000000 -0.000000 -4.658652 24.142259 1.500897 -4.417168 -2.755188 18.696526 0.000000 -0.000000 0.000000 -0.900730 9.245296 -17.734317 5.588997 -4.350813 15.692388 
0.300127 0.714612 0.486685 -4.210091 38.172628 -11.724831 -0.000000 -0.000000 0.000000 4.190252 -0.202170 -6.486737 3.248376 -1.759043 -4.970339 0.000000 0.000000 0.000000 3.486552 -0.853997 -5.193823 3.002047 -4.264520 -2.302699 2.458505 -1.174845 -5.354786 -12.828715 -0.802821 10.165024 -60.676523 15.980206 -5.850637 -0.968476 -26.609510 6.116096 2.694616 -1.202834 -2.968106 6.904232 7.655905 1.808299 62.990424 -1.905786 -7.431280 0.540461 53.860076 -0.617367 -0.000000 -0.000000 -0.000000 -4.589037 23.323647 1.626099 -4.699827 -3.050174 19.294692 0.000000 -0.000000 0.000000 -0.600212 9.760153 -17.870430 5.695197 -4.419916 16.249919 
0.503927 0.731220 0.461626 -3.936159 36.553591 -11.557379 -0.000000 -0.000000 0.000000 4.362376 -0.308047 -6.422467 3.278199 -1.776624 -4.817324 0.000000 0.000000 0.000000 3.501536 -0.841097 -5.036207 2.776106 -4.091364 -1.531811 2.505615 -1.171973 -5.198847 -12.783626 -0.865179 10.070898 -60.871572 15.843152 -6.013206 -1.041394 -26.710601 6.091497 2.728828 -1.205605 -2.887929 6.951975 7.734008 1.817270 62.933662 -2.000497 -7.365122 0.565546 54.090871 -0.600051 -0.000000 -0.000000 -0.000000 -4.769190 22.317196 1.651523 -4.891719 -3.393502 20.040689 0.000000 -0.000000 0.000000 -0.375995 10.327218 -18.009383 5.862197 -4.282374 16.836876 
0.757527 0.750676 0.435696 -3.581520 34.633094 -11.315495 -0.000000 -0.000000 0.000000 4.495518 -0.455067 -6.424133 3.303594 -1.800813 -4.667100 0.000000 0.000000 0.000000 3.515191 -0.833159 -4.887173 2.579012 -3.782237 -0.754846 2.550998 -1.177378 -5.057012 -12.888828 -0.854798 9.988866 -60.951730 15.662288 -6.082550 -1.113669 -26.783987 6.064632 2.760199 -1.217291 -2.809406 6.942124 7.795033 1.823873 62.887568 -2.095335 -7.310489 0.588441 54.207171 -0.584063 -0.000000 -0.000000 -0.000000 -5.155097 21.459593 1.623231 -5.011557 -3.801305 20.832633 0.000000 -0.000000 0.000000 -0.251870 10.921687 -18.173407 6.141273 -3.874840 17.474950 
